<?xml version="1.0" encoding="UTF-8"?>
<svg width="264px" height="264px" viewBox="0 0 264 264" version="1.1" xmlns="http://www.w3.org/2000/svg" xmlns:xlink="http://www.w3.org/1999/xlink">
    <title>形状</title>
    <defs>
        <linearGradient x1="50%" y1="0%" x2="50%" y2="86.165508%" id="linearGradient-1">
            <stop stop-color="#576273" offset="0%"></stop>
            <stop stop-color="#414B5B" offset="100%"></stop>
        </linearGradient>
        <path d="M651.817248,319.769718 C653.305142,314.151308 656.808357,306.500942 662.598932,301.981786 C666.929371,298.595195 668.011981,295.086464 664.464352,292.899059 C659.85632,290.067647 645.62694,287.197372 635.861243,295.319639 C634.706459,296.28565 633.068665,299.422411 633.962512,303.408596 C634.756426,306.9895 638.292952,315.455978 643.556101,320.824558 C645.754632,323.045274 650.551427,324.438773 651.817248,319.769718 L651.817248,319.769718 Z M639.767634,326.193986 C634.138205,324.683878 626.499059,321.180652 621.979971,315.401161 C618.571224,311.070707 615.079201,309.982541 612.891829,313.546838 C610.06046,318.13823 607.201332,332.373211 615.33458,342.127837 C616.289473,343.277073 619.426186,344.920425 623.412311,344.048782 C626.998712,343.221554 635.470614,339.718328 640.822458,334.432953 C643.04314,332.234414 644.442169,327.437603 639.767634,326.199537 L639.767634,326.193986 Z M646.199812,338.233603 C644.700863,343.845728 641.197763,351.48399 635.412929,356.024759 C631.065975,359.433112 629.988953,362.913628 633.536466,365.122951 C638.144347,367.926238 652.378815,370.801688 662.13864,362.680484 C663.287835,361.731252 664.925576,358.556044 664.042861,354.603687 C663.23787,350.995497 659.712563,342.535677 654.455137,337.184453 C652.256678,334.964027 647.443385,333.548506 646.199812,338.233603 Z M658.220919,332.548194 C663.861594,334.07491 671.478726,337.589132 676.009031,343.357342 C679.428968,347.693215 682.909975,348.781347 685.097402,345.222711 C687.928843,340.620357 690.810251,326.369158 682.671246,316.620383 C681.688569,315.471183 678.573984,313.833433 674.582207,314.727256 C670.984612,315.532251 662.523599,319.046474 657.177173,324.331687 C654.967538,326.513502 653.551818,331.321269 658.220919,332.548194 L658.220919,332.548194 Z" id="path-2"></path>
        <filter x="-196.2%" y="-188.5%" width="492.3%" height="492.3%" filterUnits="objectBoundingBox" id="filter-3">
            <feOffset dx="0" dy="6" in="SourceAlpha" result="shadowOffsetOuter1"></feOffset>
            <feGaussianBlur stdDeviation="50" in="shadowOffsetOuter1" result="shadowBlurOuter1"></feGaussianBlur>
            <feColorMatrix values="0 0 0 0 0.125490196   0 0 0 0 0.127812629   0 0 0 0 0.129411765  0 0 0 0.1 0" type="matrix" in="shadowBlurOuter1"></feColorMatrix>
        </filter>
    </defs>
    <g id="页面-1" stroke="none" stroke-width="1" fill="none" fill-rule="evenodd">
        <g id="2" transform="translate(-727.000000, -1650.000000)">
            <g id="编组-3" transform="translate(77.000000, 519.000000)">
                <g id="编组-6" transform="translate(133.000000, 928.000000)">
                    <g id="形状">
                        <use fill="black" fill-opacity="1" filter="url(#filter-3)" xlink:href="#path-2"></use>
                        <use fill="url(#linearGradient-1)" fill-rule="evenodd" xlink:href="#path-2"></use>
                    </g>
                </g>
            </g>
        </g>
    </g>
</svg>