<svg height="64" viewBox="0 0 73 64" width="73" xmlns="http://www.w3.org/2000/svg"><path d="m63.3646118 29.2376564.1168059 26.5800726c0 4.4800641-3.3338373 8.182271-7.5510197 8.182271h-39.0740328c-4.2220494 0-7.55832011-3.70713-7.55832011-8.182271l-.12167291-26.5849958h-6.59953771c-1.00496676.1525879-1.98583594-.3971486-2.39082264-1.3399571-.40498671-.9428084-.13295376-2.0432416.66306756-2.6822543 19.09291041-14.9368292 29.19176051-22.74986412 30.67616981-23.75418618 2.9174064-1.89455474 6.6464595-1.94421327 9.6121585-.12800183 1.5671468.96986 11.7000654 8.78289491 31.0046865 23.88711111.8028454.6378864 1.0787596 1.7436116.6713691 2.6905096-.4073905.9468981-1.3953645 1.496214-2.4039911 1.336625h-7.0399935zm-27.3646118 8.7623436c-3.8649829 0-6.9985712 3.0774418-7 6.8745766v9.0406777c0 2.8082275 2.3171954 5.0847457 5.1756007 5.0847457h3.6487986c2.8584053 0 5.1756007-2.2765182 5.1756007-5.0847457v-9.0406777c0-1.8236915-.7375803-3.5726523-2.0504094-4.8619585s-3.0933132-2.0132921-4.9495906-2.0126181z" fill="#0f0f0f"/></svg>