<?xml version="1.0" encoding="UTF-8"?>
<svg width="346px" height="348px" viewBox="0 0 346 348" version="1.1" xmlns="http://www.w3.org/2000/svg" xmlns:xlink="http://www.w3.org/1999/xlink">
    <title>自然风</title>
    <defs>
        <path d="M66.1157504,80.8485158 C57.8642277,80.8485158 45.2965239,80.3701767 33.7067783,76.9835357 C15.5675335,71.6548378 5.66570629,61.0261424 4.26929476,45.4131533 C3.48880885,36.6978144 4.68774804,28.8913198 7.73916584,22.8451133 C10.7905836,16.7989067 15.6427611,12.7282407 21.4211778,11.3649742 C29.5645609,9.45161772 38.859866,12.890876 47.5815609,21.0800419 C57.1965831,30.1110846 66.0029091,44.7817456 73.0507909,63.5135059 C73.1025098,63.6474408 73.2153511,63.9105273 73.370508,64.2740651 C77.0331497,72.965487 77.8089339,76.8543841 76.332593,79.1312784 C75.6481492,80.1857504 74.4807034,80.8102985 73.2388597,80.7863317 C72.5665135,80.7863317 71.7484138,80.7863317 70.7986659,80.8102487 C69.4774819,80.8293823 67.8930014,80.8485158 66.1157504,80.8485158 Z M26.2921622,16.5166735 C25.0815309,16.5151123 23.8747129,16.6547423 22.6953446,16.9328417 C13.5881084,19.0805843 8.56196725,30.0536839 9.88785295,44.8774135 C12.6524657,75.8594387 56.3643783,75.2662982 70.7234383,75.0701792 L71.2406278,75.0701792 C70.9350158,73.6973459 70.1404247,71.1669319 68.1845082,66.5270424 C67.9870359,66.0487032 67.8459842,65.7234326 67.7848618,65.5703641 C58.3061896,40.3618921 42.1698785,16.5166735 26.2921622,16.5166735 L26.2921622,16.5166735 Z" id="path-1"></path>
        <filter x="-209.6%" y="-210.0%" width="519.2%" height="537.1%" filterUnits="objectBoundingBox" id="filter-2">
            <feOffset dx="0" dy="6" in="SourceAlpha" result="shadowOffsetOuter1"></feOffset>
            <feGaussianBlur stdDeviation="50" in="shadowOffsetOuter1" result="shadowBlurOuter1"></feGaussianBlur>
            <feColorMatrix values="0 0 0 0 0.48627451   0 0 0 0 0.474509804   0 0 0 0 0.960784314  0 0 0 0.3 0" type="matrix" in="shadowBlurOuter1"></feColorMatrix>
        </filter>
        <path d="M49.1292523,63.6754514 C48.6480794,63.6754514 48.1748599,63.5510104 47.7538337,63.3148821 C13.0268859,43.8297148 1.25519999,14.7245574 0.752460781,13.493814 C0.21771997,12.0269618 0.933445188,10.3953377 2.3661009,9.81523173 C3.79875661,9.23512581 5.42651391,9.91783519 6.03596527,11.3544359 C6.14505019,11.6332762 17.6274239,39.8249913 50.4904424,58.2669113 C51.6232381,58.902176 52.1902597,60.2324361 51.8702426,61.5039892 C51.5502255,62.7755422 50.4238299,63.6678932 49.1292523,63.6754514 L49.1292523,63.6754514 Z M65.7291317,19.445612 C64.8500335,19.445612 64.020214,19.0340657 63.4810338,18.3302508 L53.57802,5.40263795 C52.9146256,4.59267741 52.7392108,3.48070643 53.120352,2.50143793 C53.5014931,1.52216944 54.3786549,0.83113739 55.4089205,0.698493236 C56.4391861,0.565849082 57.4589218,1.01266025 58.0694731,1.86425079 L67.9772297,14.7918637 C68.6436542,15.6617759 68.7632147,16.8404391 68.2853711,17.8296147 C67.8075276,18.8187903 66.8156934,19.4458057 65.7291317,19.445612 Z M64.3062849,32.4261083 C63.4664107,32.4256092 62.6696484,32.049061 62.1293293,31.3972838 L45.0409391,10.7919477 C44.3500289,10.0080739 44.1344794,8.90528671 44.47834,7.91359602 C44.8222005,6.92190532 45.671026,6.19833014 46.6938339,6.02501407 C47.7166418,5.85169801 48.7514863,6.25608303 49.3948504,7.08048729 L66.4690121,27.690631 C67.1759034,28.5470613 67.3316564,29.7401214 66.8688607,30.7534524 C66.406065,31.7667835 65.4078655,32.4183327 64.3062849,32.4261083 L64.3062849,32.4261083 Z" id="path-3"></path>
        <filter x="-225.0%" y="-233.3%" width="550.0%" height="585.7%" filterUnits="objectBoundingBox" id="filter-4">
            <feOffset dx="0" dy="6" in="SourceAlpha" result="shadowOffsetOuter1"></feOffset>
            <feGaussianBlur stdDeviation="50" in="shadowOffsetOuter1" result="shadowBlurOuter1"></feGaussianBlur>
            <feColorMatrix values="0 0 0 0 0.48627451   0 0 0 0 0.474509804   0 0 0 0 0.960784314  0 0 0 0.3 0" type="matrix" in="shadowBlurOuter1"></feColorMatrix>
        </filter>
        <path d="M17.0337758,53.6520529 C16.1183093,53.6520529 15.2587581,53.216265 14.7237229,52.4813637 C14.1886876,51.7464625 14.0434219,50.801893 14.3333196,49.9428232 C20.1898449,32.5704815 33.7395853,30.0444491 34.3138475,29.9458494 C35.8629331,29.6735736 37.3418234,30.6952064 37.6170417,32.2277299 C37.8922599,33.7602535 36.8595865,35.2233325 35.310501,35.4956082 C34.8359041,35.5848176 24.4612167,37.6976699 19.7342319,51.7223144 C19.3479644,52.8736925 18.2600225,53.6511328 17.0337758,53.6520529 L17.0337758,53.6520529 Z M34.7931904,65.9019106 L34.6697952,65.9019106 C33.9151806,65.8701991 33.2042098,65.543204 32.6933148,64.9928635 C32.1824199,64.4425229 31.9134585,63.7139265 31.9456092,62.9673842 C32.4486819,51.0227255 43.2505065,46.2429839 48.8934632,45.3837573 C50.4477909,45.1413023 51.9064952,46.1913137 52.1515705,47.7290235 C52.3966458,49.2667332 51.335287,50.7098419 49.7809593,50.9522971 C49.3063624,51.0274207 38.0774007,52.9336831 37.6455175,63.2021456 C37.5818006,64.713805 36.3225092,65.9057367 34.7931904,65.9019106 L34.7931904,65.9019106 Z" id="path-5"></path>
        <filter x="-402.6%" y="-408.3%" width="905.3%" height="950.0%" filterUnits="objectBoundingBox" id="filter-6">
            <feOffset dx="0" dy="6" in="SourceAlpha" result="shadowOffsetOuter1"></feOffset>
            <feGaussianBlur stdDeviation="50" in="shadowOffsetOuter1" result="shadowBlurOuter1"></feGaussianBlur>
            <feColorMatrix values="0 0 0 0 0.48627451   0 0 0 0 0.474509804   0 0 0 0 0.960784314  0 0 0 0.3 0" type="matrix" in="shadowBlurOuter1"></feColorMatrix>
        </filter>
    </defs>
    <g id="页面-1" stroke="none" stroke-width="1" fill="none" fill-rule="evenodd">
        <g id="1" transform="translate(-731.000000, -1315.000000)">
            <g id="自然风" transform="translate(902.547806, 1483.282470) rotate(-16.000000) translate(-902.547806, -1483.282470) translate(863.547806, 1442.782470)">
                <g id="形状">
                    <use fill="black" fill-opacity="1" filter="url(#filter-2)" xlink:href="#path-1"></use>
                    <use fill="#B5C4D1" fill-rule="evenodd" xlink:href="#path-1"></use>
                </g>
                <g id="形状">
                    <use fill="black" fill-opacity="1" filter="url(#filter-4)" xlink:href="#path-3"></use>
                    <use fill="#B5C4D1" fill-rule="evenodd" xlink:href="#path-3"></use>
                </g>
                <g id="形状">
                    <use fill="black" fill-opacity="1" filter="url(#filter-6)" xlink:href="#path-5"></use>
                    <use fill="#B5C4D1" fill-rule="evenodd" xlink:href="#path-5"></use>
                </g>
            </g>
        </g>
    </g>
</svg>