<?xml version="1.0" encoding="UTF-8"?>
<svg width="66px" height="74px" viewBox="0 0 66 74" version="1.1" xmlns="http://www.w3.org/2000/svg" xmlns:xlink="http://www.w3.org/1999/xlink">
    <!-- Generator: Sketch 59.1 (86144) - https://sketch.com -->
    <title>喷雾未开启</title>
    <desc>Created with Sketch.</desc>
    <g id="页面-1" stroke="none" stroke-width="1" fill="none" fill-rule="evenodd">
        <g id="1" transform="translate(-194.000000, -1362.000000)" fill="#B5C4D1">
            <g id="喷雾开关" transform="translate(80.000000, 1277.000000)">
                <g id="喷雾未开启" transform="translate(114.000000, 85.000000)">
                    <polygon id="路径-2" points="27.7590761 6 3 41.0745425 3 54.1689335 12.3467172 67.4425228 29.5852908 72 45 66.3525084 43.1156144 60.9370344 38.3691014 51.984288 41.3140783 39 45 34.0172781"></polygon>
                    <path d="M42.0924639,62.5991359 C37.494316,66.7289458 31.1793432,68.6921749 24.8854912,67.9485224 C18.5916393,67.2048698 12.9822243,63.83271 9.60101508,58.760096 C5.47887635,52.3656058 5.47887635,44.330703 9.60101508,37.9362128 L27.5697708,7.80556605 L42.8309059,32.9338274 L46.4000423,27.0007657 L31.1389073,1.98883889 C30.3932144,0.758761482 29.008077,0 27.508234,0 C26.008391,0 24.6232537,0.758761482 23.8775608,1.98883889 L3.69347894,34.9115146 C-1.23127297,42.9743636 -1.23115205,52.9082299 3.69379613,60.9709717 C8.61874432,69.0337135 17.7202671,74 27.5697708,74 C35.3936144,74.0182581 42.8433841,70.8367021 48,65.2748304 C45.8423548,64.8159812 43.8226613,63.9012034 42.0924639,62.5991359 Z" id="路径" fill-rule="nonzero"></path>
                    <path d="M63.8050432,41.7341584 L52.1514149,21.1663692 C51.6795555,20.4393777 50.867408,20 49.9954937,20 C49.1235793,20 48.3114319,20.4393777 47.8395725,21.1663692 L36.1859442,41.7341584 C33.2635383,46.7528515 33.2718989,52.9381598 36.2078615,57.9490678 C39.1438241,62.9599759 44.5588158,66.0308889 50.4033707,65.9997657 L50.4033707,65.9997657 C56.1017176,65.7504785 61.2551576,62.5687997 63.9948146,57.6083152 C66.7344715,52.6478307 66.6625163,46.6288592 63.8050432,41.7341584 Z M57.4497278,54.0570393 C55.0137983,58.3457206 49.6972688,59.7679918 45.5749267,57.2337711 C41.4525846,54.6995503 40.0854769,49.1684953 42.5214063,44.8798139 L50.0825042,31.2652487 L57.4497278,44.577268 C59.0977098,47.5046357 59.0977098,51.1296717 57.4497278,54.0570393 Z" id="形状" fill-rule="nonzero"></path>
                </g>
            </g>
        </g>
    </g>
</svg>
