<?xml version="1.0" encoding="UTF-8"?>
<svg width="62px" height="75px" viewBox="0 0 62 75" version="1.1" xmlns="http://www.w3.org/2000/svg" xmlns:xlink="http://www.w3.org/1999/xlink">
    <!-- Generator: Sketch 59.1 (86144) - https://sketch.com -->
    <title>灯光</title>
    <desc>Created with Sketch.</desc>
    <g id="页面-1" stroke="none" stroke-width="1" fill="none" fill-rule="evenodd">
        <g id="2" transform="translate(-867.000000, -1361.000000)" fill="#0F0F0F">
            <g id="灯光" transform="translate(750.000000, 1277.000000)">
                <g transform="translate(117.000000, 84.000000)">
                    <path d="M29.0020583,0.532365732 C15.8350373,1.32826774 4.6257174,10.5209213 1.114589,23.4026063 C-2.3965394,36.2842913 2.56812884,50.0021175 13.4660995,57.5309441 C15.0446632,58.6939455 15.9665387,60.5619343 15.9377293,62.5391874 L15.9377293,68.262894 C15.9377293,71.6874362 18.6778479,74.4635762 22.0579555,74.4635762 L40.1832407,74.4635762 C43.5172967,74.3986049 46.1863869,71.6414039 46.1857702,68.262894 L46.1857702,62.5391874 C46.1839274,60.5400629 47.1519628,58.6677008 48.7750967,57.5309441 C60.1626652,49.4679019 64.8529443,34.7057436 60.2463171,21.4264894 C55.6396898,8.14723517 42.8647373,-0.395820332 29.0020583,0.532365732 Z M45.8329058,51.9941893 C42.7163357,54.2018405 40.8547173,57.8267766 40.8484753,61.6998529 L40.8484753,64.8956202 C40.8801122,65.6379054 40.6132508,66.3611427 40.1097918,66.8975712 C39.6063328,67.4339996 38.9100256,67.7370048 38.1823845,67.7363034 L25.0837648,67.7363034 C23.5927528,67.6728119 22.4163781,66.4194012 22.417674,64.8956202 L22.417674,61.8182147 C22.4379411,57.9668828 20.6217999,54.3463002 17.5491605,52.1125511 C8.59726384,45.8817723 4.66902541,34.4200451 7.86258088,23.8492632 C11.0561364,13.2784814 20.6253699,6.0683147 31.4591992,6.06963677 L31.4591992,6.06963677 C42.2923993,6.02683975 51.8999475,13.1670215 55.1901138,23.7062798 C58.48028,34.245538 54.6919799,45.7459216 45.8329058,52.1125511 L45.8329058,51.9941893 Z" id="形状" fill-rule="nonzero"></path>
                    <rect id="矩形" fill-rule="nonzero" x="19" y="52.4635762" width="24" height="6"></rect>
                    <ellipse id="椭圆形" cx="31" cy="31.9635762" rx="27" ry="26.5"></ellipse>
                </g>
            </g>
        </g>
    </g>
</svg>
