<?xml version="1.0" encoding="UTF-8"?>
<svg width="56px" height="62px" viewBox="0 0 56 62" version="1.1" xmlns="http://www.w3.org/2000/svg" xmlns:xlink="http://www.w3.org/1999/xlink">
    <!-- Generator: Sketch 59.1 (86144) - https://sketch.com -->
    <title>名称</title>
    <desc>Created with Sketch.</desc>
    <g id="页面-1" stroke="none" stroke-width="1" fill="none" fill-rule="evenodd">
        <g id="9" transform="translate(-167.000000, -434.000000)" fill="#000000" fill-rule="nonzero">
            <path d="M193.960693,434 C203.134646,434 210.555556,441.172424 210.555556,450.010989 C210.555556,458.849554 203.125562,466.021978 193.960693,466.021978 C184.800366,466.021978 177.37037,458.849554 177.37037,450.010989 C177.365831,441.172424 184.800366,434 193.960693,434 Z M188.171005,470.10989 L201.828995,470.10989 C213.522387,470.10989 223,479.092967 223,490.176995 L223,491.465232 C223,495.835728 213.522387,496 201.828995,496 L188.171005,496 C176.482099,496 167,495.991354 167,491.465232 L167,490.176995 C167,479.092967 176.473128,470.10989 188.171005,470.10989 Z" id="名称"></path>
        </g>
    </g>
</svg>
