<?xml version="1.0" standalone="no"?><!DOCTYPE svg PUBLIC "-//W3C//DTD SVG 1.1//EN" "http://www.w3.org/Graphics/SVG/1.1/DTD/svg11.dtd"><svg t="1632970241570" class="icon" viewBox="0 0 1024 1024" version="1.1" xmlns="http://www.w3.org/2000/svg" p-id="3238" xmlns:xlink="http://www.w3.org/1999/xlink" width="200" height="200"><defs><style type="text/css"></style></defs><path d="M408.18602217 389.33577617c-11.93388223 47.73552979-23.86776533 93.98157451-35.80164668 141.72160342-1.49398506 7.46092617 4.47745606 17.90082334 8.95041123 23.86776533 32.81817656 41.76858867 67.13033906 85.0311624 101.44250156 125.31026514 20.88429434 23.86776533 29.83470644 50.71900078 32.81817656 82.04769228 4.47745606 50.71900078 10.44439717 101.44250068 14.91735323 152.16150147 1.49398506 19.39480928 2.98347099 38.78511768-20.88429434 46.24604385-19.39480928 5.96694112-34.31216162-8.95041211-40.27910362-37.29563262l-31.32869149-152.16150059c-2.98347099-10.44439717-8.95041211-23.86776533-16.41133829-31.3286915-59.66941201-53.70247089-120.83280997-105.91545674-181.99620703-156.63895752-19.39480928-16.41133828-26.85123545-31.32869151-20.88429434-56.68594189 14.91735322-55.19645596 26.85123545-110.39291279 41.76858867-170.06232481-38.78511768 20.88429434-71.60779424 38.78511768-79.06422128 85.0311624-4.47745606 32.81817656-16.41133828 64.14686807-28.34522139 93.98157452-2.98347099 8.95041211-16.41133828 13.42786816-25.36174951 20.88429433-2.98347099-10.44439717-11.93388223-20.88429434-10.44439717-29.83470644a2458.41128437 2458.41128437 0 0 1 31.32869151-143.21108936c4.47745606-14.91735322 13.42786816-29.83470644 25.36174951-38.78511767 40.27910362-34.31216162 83.54167734-68.62432412 125.31026601-101.44250068 41.76858867-32.81817656 92.49208857-20.88429434 117.84933896 23.86776445 7.46092617 11.93388223 13.42786816 25.36175039 17.90082422 38.78511855 26.85123545 77.57473623 73.09728018 138.7381333 143.21108936 181.99620703 8.95041211 5.96694112 17.90082334 25.36175039 14.91735234 32.81817656-7.46092617 17.90082334-23.86776533 7.46092617-35.80164667 1.49398594-8.95041211-4.47745606-17.90082334-10.44439717-26.85123545-14.91735323-52.21298584-26.85123545-104.42597168-52.21298584-114.86586885-120.83280995-2.98347099 0-5.96694112 1.48948506-7.45642705 2.98347099z m-196.91806026 195.42407432c26.85123545 19.39480928 52.21298584 35.80164756 74.59126524 55.19645683 5.96694112 4.47745606 8.95041211 16.41133828 7.46092705 23.86776446-8.95041211 56.6859419-25.36175039 108.89892773-64.14686806 153.65548652-31.32869151 37.29563262-56.6859419 79.06422129-85.03116241 119.3433249-11.93388223 17.90082334-26.85123545 29.83470644-46.24604472 16.41133828-19.39480928-11.93388223-13.42786816-29.83470644-4.47745606-47.73552978 17.90082334-32.81817656 34.31216162-67.13033906 53.7024709-98.45903057 37.29563262-58.17992695 53.70247089-120.83280997 58.17992695-189.4571332 1.49398506-8.95491211 2.98347099-17.90532334 5.96694112-32.82267744zM375.3633456 68.60143497c38.78511768 0 68.62432412 31.32869151 68.62432412 71.60779511-1.49398506 38.78511768-29.83470644 67.13033906-68.62432412 67.13033818-40.27910362 0-68.62432412-29.83470644-67.13033818-70.11380918-1.48948506-40.28360362 28.34522051-68.62432412 67.13033818-68.62432411zM799.03417256 568.34851221c-8.95041211 0-17.90082334-4.47745606-23.86776446-11.93388223-10.44439717-13.42786816-8.95041211-32.81817656 4.47745518-44.75205879 59.66941201-49.22951484 93.98157451-120.83280997 93.98157451-199.90153125 0-74.59126523-31.32869151-146.19456035-88.01463252-193.93459014-13.42786816-11.93388223-14.91735322-31.32869151-2.983471-44.75205878 11.93388223-13.42786816 31.32869151-14.91735322 44.75205967-2.983471 70.11380918 59.66941201 108.89892773 147.68854541 108.89892686 241.67011992 0 96.96504463-43.26257373 187.96314815-117.84933897 249.1265461-4.47745606 5.97144112-11.93838223 7.46092617-19.39480927 7.46092617z" fill="#101010" p-id="3239"></path><path d="M703.55861299 507.18511513c-8.95041211 0-19.39480928-4.47745606-25.36175039-11.93388222-10.44439717-13.42786816-7.46092617-32.81817656 5.96694199-43.26257461 43.26257373-31.32869151 68.62432412-82.04769141 68.62432324-137.24414824s-25.36175039-104.42597168-68.62432324-137.24414736c-13.42786816-10.44439717-16.41133828-29.83470644-5.96694199-43.26257462 10.44439717-13.42786816 29.83470644-16.41133828 43.26257461-5.9669411 58.17992695 43.26257373 93.98157451 113.37638291 93.98157363 186.47366308s-34.31216162 143.21108935-93.98157363 186.47366397c-4.47295605 2.98347099-11.93388223 5.96694112-17.90082422 5.9669411z" fill="#101010" p-id="3240"></path><path d="M603.61009737 451.9886583c-10.44439717 0-20.88429434-5.96694112-26.85123546-16.41133828-8.95041211-14.91735322-2.98347099-34.31216162 11.93388223-43.26257373 28.34522051-16.41133828 46.24604473-46.24604473 46.24604473-80.55820635 0-32.81817656-16.41133828-62.65288301-43.26257374-79.06422129-14.91735322-8.95041211-19.39480928-28.34522051-10.44439716-43.26257373s28.34522051-19.39480928 43.26257373-10.44439716c44.75205878 28.34522051 73.09728018 79.06422129 73.09728017 132.77119218 0 56.6859419-29.83470644 107.4094418-77.57473622 134.26067725-5.96694112 4.48195606-11.93388223 5.97144112-16.40683828 5.97144111z" fill="#101010" p-id="3241"></path></svg>